<?xml version="1.0" encoding="UTF-8"?>
<svg xmlns="http://www.w3.org/2000/svg" width="22" height="25" viewBox="0 0 22 25" fill="none">
  <path d="M10.9991 0C10.1299 0 9.42763 0.698242 9.42763 1.5625V2.5C5.84281 3.22266 3.14192 6.37695 3.14192 10.1562V11.0742C3.14192 13.3691 2.29236 15.5859 0.760221 17.3047L0.396828 17.71C-0.0156721 18.1689 -0.113886 18.8281 0.13656 19.3896C0.387006 19.9512 0.951739 20.3125 1.57049 20.3125H20.4276C21.0464 20.3125 21.6062 19.9512 21.8616 19.3896C22.1169 18.8281 22.0138 18.1689 21.6013 17.71L21.2379 17.3047C19.7058 15.5859 18.8562 13.374 18.8562 11.0742V10.1562C18.8562 6.37695 16.1553 3.22266 12.5705 2.5V1.5625C12.5705 0.698242 11.8683 0 10.9991 0ZM13.2236 24.0869C13.8129 23.501 14.1419 22.7051 14.1419 21.875H10.9991H7.8562C7.8562 22.7051 8.18522 23.501 8.77451 24.0869C9.36379 24.6729 10.1642 25 10.9991 25C11.8339 25 12.6343 24.6729 13.2236 24.0869ZM9.42763 15.625C9.42763 15.2106 9.59319 14.8132 9.88789 14.5201C10.1826 14.2271 10.5823 14.0625 10.9991 14.0625C11.4158 14.0625 11.8155 14.2271 12.1102 14.5201C12.4049 14.8132 12.5705 15.2106 12.5705 15.625C12.5705 16.0394 12.4049 16.4368 12.1102 16.7299C11.8155 17.0229 11.4158 17.1875 10.9991 17.1875C10.5823 17.1875 10.1826 17.0229 9.88789 16.7299C9.59319 16.4368 9.42763 16.0394 9.42763 15.625ZM12.1776 6.64062V11.3281C12.1776 11.9775 11.6522 12.5 10.9991 12.5C10.3459 12.5 9.82049 11.9775 9.82049 11.3281V6.64062C9.82049 5.99121 10.3459 5.46875 10.9991 5.46875C11.6522 5.46875 12.1776 5.99121 12.1776 6.64062Z" fill="white"></path>
</svg>
